<svg id="babbc8d2-7e2a-4ccd-ab74-861b615a8503" data-name="Layer 1" xmlns="http://www.w3.org/2000/svg" width="13.8109in" height="3.5954in" viewBox="0 0 994.3825 258.8664"><defs><style>.f569bbff-2044-4ca9-a729-a87d079c296a{stroke:#000;stroke-miterlimit:10;stroke-width:25px;}</style></defs><title>AQq</title><path class="f569bbff-2044-4ca9-a729-a87d079c296a" d="M385.6423,132.2153c10.1935,4.7574,19.1481-9.1343,11.8829-18.4223-45.27-57.8745-113.8271-94.7712-190.5625-94.7712-77.2142,0-146.1474,37.3585-191.4071,95.8568-7.2193,9.331,1.776,23.1694,11.951,18.3661l.4542-.2144c114.2739-53.9448,243.2108-54.2386,357.6813-.8151Z"/><ellipse cx="954.5019" cy="229.7277" rx="39.8807" ry="29.1387"/><path d="M925.1056,128.5291c0,70.9847-93.0275,128.5292-207.7829,128.5292S509.54,199.5138,509.54,128.5291,602.5674,0,717.3227,0,925.1056,57.5445,925.1056,128.5291ZM717.3228,43.5649c-50.6148,0-91.6461,37.5294-91.6461,83.8242s41.0313,83.8242,91.6461,83.8242,91.6461-37.5294,91.6461-83.8242S767.9375,43.5649,717.3228,43.5649Z"/></svg>