<svg id="Layer_1" data-name="Layer 1" xmlns="http://www.w3.org/2000/svg" width="1325.5579" height="228.5364" viewBox="0 0 1325.5579 228.5364"><defs><style>.cls-1{fill:none;stroke:#000;stroke-miterlimit:10;stroke-width:21px;}</style></defs><title>AQC</title><path d="M145.9614,135.87H121.8282l-6.6487,13.054H72.1666L123.3878,69.93h45.9679l51.3032,78.9936h-44.08L169.848,135.87Zm0-45.5215L130.94,118.7993h30.043Z"/><path d="M293.55,69.93q32.752,0,50.5233,10.2648,17.7711,10.2666,17.7715,28.5628,0,13.3888-7.7979,21.98a44.3716,44.3716,0,0,1-10.0145,7.1407l17.8124,5.2436-12.3948,7.81q-.4119.11-11.41-3.1241-11.0006-3.2372-11.41-3.124a81.3045,81.3045,0,0,1-14.8161,3.3469,156.5209,156.5209,0,0,1-18.5927.8926,178.4738,178.4738,0,0,1-18.6742-1.1155,84.508,84.508,0,0,1-16.6223-3.124,81.6671,81.6671,0,0,1-13.585-5.5789,42.65,42.65,0,0,1-10.22-7.4751q-9.0309-8.8128-9.03-22.2033,0-18.6315,18.0177-29.0646,18.0174-10.431,50.113-10.4322Zm0,61.2538q13.1324,0,20.316-4.9093,7.1818-4.9083,7.1824-17.8517a22.5593,22.5593,0,0,0-1.7647-9.4282,14.5018,14.5018,0,0,0-5.7048-6.3036,32.8893,32.8893,0,0,0-7.6831-3.5163,38.6369,38.6369,0,0,0-12.3471-1.8979,40.5981,40.5981,0,0,0-12.683,2.001,27.032,27.032,0,0,0-7.5909,3.5247q-7.3873,5.0211-7.3876,16.7358,0,11.3805,7.3057,16.6248Q280.7438,131.1839,293.55,131.1841Z"/><rect class="cls-1" x="13.811" y="14.4" width="414.1821" height="199.7364"/><path d="M489.22,100.2505a44.7223,44.7223,0,0,1,2.4009-8.46,38.6775,38.6775,0,0,1,7.66-13.2617,32.824,32.824,0,0,1,11.7754-8.1172,46.2281,46.2281,0,0,1,7.3164-2.0576,37.5329,37.5329,0,0,1,8.003-.8008,38.2109,38.2109,0,0,1,17.72,3.8877A31.75,31.75,0,0,1,556.328,81.8442a32.35,32.35,0,0,1,5.3731,14.9766H544.4384q-3.43-14.29-17.377-14.2911-10.1771,0-15.8911,7.8887-5.6031,7.7754-5.6021,21.4922l.2291.6865a37.1726,37.1726,0,0,0,2.2861,12.8037,22.82,22.82,0,0,0,6.7451,10.0606,16.2425,16.2425,0,0,0,10.8608,3.7734q15.3186,0,18.7491-15.4345h17.2627a40.815,40.815,0,0,1-5.9449,15.5488,32.0073,32.0073,0,0,1-12.0039,10.7461,36.1288,36.1288,0,0,1-17.3769,4.1152,39.9963,39.9963,0,0,1-19.3208-4.5723,33.1967,33.1967,0,0,1-13.7188-14.291,41.4042,41.4042,0,0,1-3.7729-10.86,57.8422,57.8422,0,0,1-1.3716-12.8047l.2285-2.4A43.0576,43.0576,0,0,1,489.22,100.2505Z"/><path d="M571.0746,112.14a60.9362,60.9362,0,0,1,4.1157-23.208A33.1824,33.1824,0,0,1,588.3373,73.27q9.145-5.7159,22.522-5.7168a41.8672,41.8672,0,0,1,14.519,2.5156,34.35,34.35,0,0,1,12.5757,7.7734,36.86,36.86,0,0,1,8.6885,13.49q3.1992,8.2325,3.2011,20.0068A54.8583,54.8583,0,0,1,647.1,129.4028a39.3494,39.3494,0,0,1-8.0029,13.376,34.7785,34.7785,0,0,1-12.461,8.46,43.92,43.92,0,0,1-16.2344,2.9717q-11.8908,0-20.5781-5.2588a35.843,35.843,0,0,1-13.49-13.9472,50.2186,50.2186,0,0,1-3.7725-9.7178,34.1847,34.1847,0,0,1-1.4863-10.1748Zm22.293,18.749q5.3723,8.8038,17.0341,8.8028,8.001,0,13.0332-4.3448a25.3621,25.3621,0,0,0,7.0879-10.4033,37.0165,37.0165,0,0,0,2.1724-12.5752,49.6009,49.6009,0,0,0-4.3442-20.4639q-4.2312-9.6035-18.4063-9.6035a20.0963,20.0963,0,0,0-9.832,2.5147,20.8582,20.8582,0,0,0-8.231,8.5752,25.4735,25.4735,0,0,0-2.7441,7.0879,29.4311,29.4311,0,0,0-1.1431,8.3457Q587.9945,122.0874,593.3676,130.8891Z"/><path d="M662.5326,69.726h25.2656l14.7476,64.8213L717.5223,69.726h24.8082v82.1983h-16.12V83.101l-.2285.23-15.2051,68.5938h-16.92L678.8807,83.101l-.2285.23v68.5938h-16.12Z"/><path d="M757.6483,69.726h25.2652l14.748,64.8213L812.6381,69.726h24.8086v82.1983h-16.12V83.101l-.2285.23-15.205,68.5938h-16.92L773.9965,83.101l-.2285.23v68.5938h-16.12Z"/><path d="M848.8773,69.726h60.4776V84.2446H865.683v17.4912h40.1279v14.4053H865.683v21.2636h45.501v14.52H848.8773Z"/><path d="M925.2455,69.726H966.974q8.458,0,14.1758,3.2a22.6727,22.6727,0,0,1,8.6885,8.69,22.9044,22.9044,0,0,1,2.8584,11.0889,24.3648,24.3648,0,0,1-1.6006,8.6884,18.68,18.68,0,0,1-4.3447,6.9737,17.7764,17.7764,0,0,1-6.7452,4.23q6.5172,2.0581,8.3457,6.6309a31.1194,31.1194,0,0,1,1.9434,11.6611v3.43l-.2285,3.7725a28.1593,28.1593,0,0,0,1.0293,8.2314,4.069,4.069,0,0,0,2.9726,3.3154v2.2862H975.09a30.83,30.83,0,0,1-1.3711-6.06l-.458-7.2021-.2285-7.3164a24.3234,24.3234,0,0,0-.2285-3.43q-.1158-.6856-.5713-2.5157l-.2285-.6855a6.6443,6.6443,0,0,0-3.2012-3.544q-2.7436-1.3725-8.46-1.372H942.0512v32.125H925.2455Zm38.1846,36.24q6.7441,0,9.4882-2.9727a13.1952,13.1952,0,0,0,2.63-8.46,11.3648,11.3648,0,0,0-2.63-7.4307q-2.7437-3.0864-9.0312-3.0869H942.0512v21.95Z"/><path d="M1005.1576,100.2505a44.6817,44.6817,0,0,1,2.4-8.46,38.6914,38.6914,0,0,1,7.6592-13.2617,32.831,32.831,0,0,1,11.7754-8.1172,46.2369,46.2369,0,0,1,7.3173-2.0576,37.5166,37.5166,0,0,1,8.002-.8008,38.2116,38.2116,0,0,1,17.7207,3.8877,31.75,31.75,0,0,1,12.2324,10.4033,32.35,32.35,0,0,1,5.3731,14.9766h-17.2627q-3.4293-14.29-17.377-14.2911-10.1763,0-15.8916,7.8887-5.6016,7.7754-5.6015,21.4922l.2285.6865a37.15,37.15,0,0,0,2.2871,12.8037,22.8112,22.8112,0,0,0,6.7451,10.0606,16.2394,16.2394,0,0,0,10.86,3.7734q15.3178,0,18.749-15.4345h17.2627a40.829,40.829,0,0,1-5.9444,15.5488,32.0178,32.0178,0,0,1-12.0039,10.7461,36.1328,36.1328,0,0,1-17.3779,4.1152,39.997,39.997,0,0,1-19.32-4.5723,33.1939,33.1939,0,0,1-13.7188-14.291,41.3858,41.3858,0,0,1-3.7724-10.86,57.8121,57.8121,0,0,1-1.3721-12.8047l.2285-2.4A43.054,43.054,0,0,1,1005.1576,100.2505Z"/><path d="M1089.184,69.726h17.2627v82.1983H1089.184Z"/><path d="M1144.974,69.726h19.8916l29.0381,82.1983h-18.749l-5.1446-16.92h-30.2959l-5.83,16.92h-18.0635Zm20.12,51.2168-10.289-32.6972-10.6319,32.6972Z"/><path d="M1204.8773,69.726H1222.14v67.2217h40.8135v14.9766h-58.0762Z"/></svg>