<svg id="b46bdfd3-7f9a-4a6b-ac3f-781c1ebc7d4b" data-name="Layer 1" xmlns="http://www.w3.org/2000/svg" width="63.4368in" height="7.5846in" viewBox="0 0 4567.4526 546.0912"><defs><style>.a058b8c8-1814-4d9d-b8c9-181ccb04cc38,.f378948e-7c8a-4ba2-a4c4-967d72183f35{stroke:#000;}.f378948e-7c8a-4ba2-a4c4-967d72183f35{stroke-miterlimit:10;stroke-width:25px;}.a058b8c8-1814-4d9d-b8c9-181ccb04cc38{fill:none;stroke-width:10px;}</style></defs><title>AQq</title><path class="f378948e-7c8a-4ba2-a4c4-967d72183f35" d="M385.6423,277.8718c10.1935,4.7573,19.1481-9.1343,11.8829-18.4223-45.27-57.8745-113.8271-94.7712-190.5625-94.7712-77.2142,0-146.1474,37.3585-191.4071,95.8568-7.2193,9.331,1.776,23.1693,11.951,18.3661l.4542-.2144c114.2739-53.9448,243.2108-54.2386,357.6813-.8151Z"/><ellipse cx="954.5019" cy="375.3842" rx="39.8807" ry="29.1387"/><path d="M925.1056,274.1856c0,70.9847-93.0275,128.5292-207.7829,128.5292S509.54,345.17,509.54,274.1856s93.0275-128.5291,207.7828-128.5291S925.1056,203.2009,925.1056,274.1856ZM717.3228,189.2214c-50.6148,0-91.6461,37.5293-91.6461,83.8242S666.708,356.87,717.3228,356.87s91.6461-37.5294,91.6461-83.8242S767.9375,189.2214,717.3228,189.2214Z"/><path d="M1421.0959,404.8728l102.86-260.876h51.0572l-99.8784,260.876Zm48.4482-57.3926V302.3854h163.607V347.48Zm157.6441,57.3926L1527.31,143.9968h51.0572l102.86,260.876Z"/><path d="M1831.7858,409.3444q-39.5076,0-69.8779-17.3291a124.25,124.25,0,0,1-47.5166-47.7031q-17.146-30.3707-17.1431-69.5049,0-29.811,9.876-54.5976a126.98,126.98,0,0,1,27.7646-42.8584A124.9066,124.9066,0,0,1,1777.0016,149.4q24.2213-9.87,53.6661-9.876,39.1311,0,69.3183,17.33a124.37,124.37,0,0,1,47.3306,47.89q17.1372,30.5625,17.143,70.0635,0,39.1318-16.9565,69.5049a124.1616,124.1616,0,0,1-46.7715,47.7031Q1870.911,409.3445,1831.7858,409.3444Zm0-46.5849q23.4786,0,41.74-11.3662a78.4185,78.4185,0,0,0,28.51-31.1192q10.2459-19.749,10.249-45.84,0-25.7139-10.435-45.6533a79.5321,79.5321,0,0,0-28.6968-31.3047q-18.2637-11.3643-42.4853-11.3672-23.4794,0-41.9268,11.3672a79.0009,79.0009,0,0,0-28.8823,31.3047q-10.4385,19.9423-10.4351,45.6533,0,26.0917,10.4351,45.84a78.76,78.76,0,0,0,29.0688,31.1192Q1807.5588,362.7663,1831.7858,362.76Zm97.6421,57.7656-96.1514-97.6416,32.7959-30.9326,95.4058,96.8965Z"/><path d="M2210.42,409.3444q-38.0127,0-67.4551-17.3291a123.5749,123.5749,0,0,1-46.2119-47.7031q-16.771-30.3707-16.7705-69.8779,0-39.4982,16.7705-69.877a124.01,124.01,0,0,1,46.0264-47.7031q29.2514-17.3305,67.2685-17.33a130.014,130.014,0,0,1,49.94,9.5039,125.4387,125.4387,0,0,1,40.4355,26.46,119.0358,119.0358,0,0,1,26.6465,38.9453l-47.33,17.5156a80.6512,80.6512,0,0,0-16.7705-24.0381,77.6138,77.6138,0,0,0-23.8515-16.0244,72.7478,72.7478,0,0,0-29.0694-5.7773q-22.7373,0-40.4355,11.3672a77.1136,77.1136,0,0,0-27.5791,31.1191q-9.879,19.7578-9.876,45.8389,0,26.0917,10.0625,46.0263a77.6644,77.6644,0,0,0,27.9512,31.3047q17.8887,11.3731,40.9951,11.3672a68.5786,68.5786,0,0,0,29.2549-6.1494,76.6744,76.6744,0,0,0,23.4795-16.957,88.5014,88.5014,0,0,0,16.5839-24.97l47.33,17.1436a123.9744,123.9744,0,0,1-67.082,67.4551A128.8487,128.8487,0,0,1,2210.42,409.3444Z"/><path d="M2484.7092,409.3444q-39.5069,0-69.877-17.3291a124.2436,124.2436,0,0,1-47.5166-47.7031q-17.1474-30.3707-17.1436-69.8779,0-39.4982,17.1436-69.877a123.7406,123.7406,0,0,1,47.1436-47.5166q29.9955-17.1387,69.1318-17.1435,39.1319,0,69.3193,17.3291a124.74,124.74,0,0,1,47.33,47.7031q17.1372,30.3794,17.1436,69.8779,0,39.1318-16.9571,69.5049a124.1609,124.1609,0,0,1-46.7715,47.7031Q2523.8357,409.3445,2484.7092,409.3444Zm0-46.5849q23.48,0,41.74-11.3662a78.1288,78.1288,0,0,0,28.5107-31.3057q10.2452-19.9321,10.2481-45.6533,0-25.7139-10.4346-45.4668a79.8353,79.8353,0,0,0-28.6963-31.1182q-18.265-11.3643-42.4863-11.3672-23.4784,0-41.9258,11.3672a79.2913,79.2913,0,0,0-28.8828,31.1182q-10.4385,19.7578-10.4355,45.84,0,25.7154,10.4355,45.4668a78.7579,78.7579,0,0,0,29.0693,31.1192Q2460.4817,362.7663,2484.7092,362.76Z"/><path d="M2658.7463,404.8728V143.9968h51.0576v260.876Zm131.5566-62.61-129.32-188.2031,23.8516-7.0811,29.4423-2.9814,101.7413,150.9355Zm0,0-25.7148-47.33,101.7412-150.9355,29.4424,2.9814,23.1054,6.335Zm80.499,62.61V143.9968h50.6846v260.876Z"/><path d="M2978.131,404.8728V143.9968h51.0577v260.876Zm131.5567-62.61-129.32-188.2031,23.8515-7.0811,29.4424-2.9814,101.7412,150.9355Zm0,0-25.7149-47.33L3185.714,143.9968l29.4424,2.9814,23.1055,6.335Zm80.499,62.61V143.9968h50.6846v260.876Z"/><path d="M3297.5158,404.8728V143.9968h51.0576v260.876Zm38.7588-214.2911V143.9968h126.3389v46.5849Zm0,104.7227V249.8376h110.6865v45.4668Zm0,109.5684v-46.585h127.83v46.585Z"/><path d="M3517.0207,404.8728V143.9968h51.0576v260.876Zm45.0947-92.4249V265.863h52.1758a43.4509,43.4509,0,0,0,20.6836-4.8447,37.7763,37.7763,0,0,0,14.5342-13.417,35.5907,35.5907,0,0,0,5.4043-19.3789q0-16.7711-12.1123-27.2061-12.1158-10.4282-31.1192-10.4346h-49.5664V143.9968l51.8027-.3731q27.5757-.3662,48.8213,10.6211,21.2418,10.9982,33.168,30.001,11.9238,19.0063,11.9258,43.9766,0,24.5961-12.4844,43.79a83.8845,83.8845,0,0,1-34.1006,29.8145q-21.6182,10.6215-49.1933,10.621Zm98.3877,92.4249-60.374-104.7237,39.1308-27.95,79.0088,132.6739Z"/><path d="M3872.5539,409.3444q-38.0127,0-67.4551-17.3291a123.5749,123.5749,0,0,1-46.2119-47.7031q-16.771-30.3707-16.7705-69.8779,0-39.4982,16.7705-69.877a124.0093,124.0093,0,0,1,46.0264-47.7031q29.2514-17.3305,67.2685-17.33a130.014,130.014,0,0,1,49.9395,9.5039,125.4387,125.4387,0,0,1,40.4355,26.46,119.0374,119.0374,0,0,1,26.6465,38.9453l-47.33,17.5156a80.6512,80.6512,0,0,0-16.7705-24.0381,77.6138,77.6138,0,0,0-23.8515-16.0244,72.7478,72.7478,0,0,0-29.0694-5.7773q-22.7373,0-40.4355,11.3672a77.1129,77.1129,0,0,0-27.5791,31.1191q-9.879,19.7578-9.876,45.8389,0,26.0917,10.0625,46.0263a77.6644,77.6644,0,0,0,27.9512,31.3047q17.8885,11.3731,40.9951,11.3672a68.5786,68.5786,0,0,0,29.2549-6.1494,76.6755,76.6755,0,0,0,23.4795-16.957,88.5014,88.5014,0,0,0,16.5839-24.97l47.33,17.1436a123.9744,123.9744,0,0,1-67.082,67.4551A128.8487,128.8487,0,0,1,3872.5539,409.3444Z"/><path d="M4027.5851,404.8728V143.9968h51.0577v260.876Z"/><path d="M4109.9435,404.8728l102.8594-260.876h51.0576l-99.8779,260.876Zm48.4483-57.3926V302.3854h163.6064V347.48Zm157.6435,57.3926-99.8779-260.876h51.0576l102.8594,260.876Z"/><path d="M4401.3752,404.8728V143.9968h51.0576v260.876Zm32.7959,0v-46.585h133.0468v46.585Z"/><line class="a058b8c8-1814-4d9d-b8c9-181ccb04cc38" x1="1208.5366" y1="546.0912" x2="1208.5366"/></svg>