<svg id="b99982ba-b6e4-4dc3-8aaf-2b48971803df" data-name="b46bdfd3-7f9a-4a6b-ac3f-781c1ebc7d4b" xmlns="http://www.w3.org/2000/svg" width="4567.4492" height="546.0912" viewBox="0 0 4567.4492 546.0912"><defs><style>.b991c025-a815-428d-aaca-44697f7e4745{stroke:#000;stroke-miterlimit:10;stroke-width:25px;}</style></defs><title>AQsolo</title><path class="b991c025-a815-428d-aaca-44697f7e4745" d="M385.6423,277.872c10.1935,4.7573,19.1481-9.1343,11.8829-18.4223-45.27-57.8745-113.8271-94.7712-190.5625-94.7712-77.2142,0-146.1474,37.3585-191.4071,95.8568-7.2193,9.331,1.776,23.1693,11.951,18.3661l.4542-.2144c114.2739-53.9448,243.2108-54.2386,357.6813-.8151Z"/><ellipse cx="954.5019" cy="375.3844" rx="39.8807" ry="29.1387"/><path d="M925.1056,274.1858c0,70.9847-93.0275,128.5292-207.7829,128.5292S509.54,345.17,509.54,274.1858s93.0275-128.5291,207.7828-128.5291S925.1056,203.2011,925.1056,274.1858ZM717.3228,189.2216c-50.6148,0-91.6461,37.5293-91.6461,83.8242S666.708,356.87,717.3228,356.87s91.6461-37.5294,91.6461-83.8242S767.9375,189.2216,717.3228,189.2216Z"/></svg>