<svg id="e4ba00d5-d8a6-4d7a-97cb-43f5fcbcc1db" data-name="b46bdfd3-7f9a-4a6b-ac3f-781c1ebc7d4b" xmlns="http://www.w3.org/2000/svg" width="4567.4492" height="546.0912" viewBox="0 0 4567.4492 546.0912"><defs><style>.a4541ea9-f1b3-4e82-8793-ded8dfebba1f,.af8889fb-ba4b-4d4b-a670-21faace6f4e7{stroke:#000;}.a4541ea9-f1b3-4e82-8793-ded8dfebba1f{stroke-miterlimit:10;stroke-width:25px;}.af8889fb-ba4b-4d4b-a670-21faace6f4e7{fill:none;stroke-width:10px;}</style></defs><title>AQV</title><path class="a4541ea9-f1b3-4e82-8793-ded8dfebba1f" d="M385.6423,277.872c10.1935,4.7573,19.1481-9.1343,11.8829-18.4223-45.27-57.8745-113.8271-94.7712-190.5625-94.7712-77.2142,0-146.1474,37.3585-191.4071,95.8568-7.2193,9.331,1.776,23.1693,11.951,18.3661l.4542-.2144c114.2739-53.9448,243.2108-54.2386,357.6813-.8151Z"/><ellipse cx="954.5019" cy="375.3844" rx="39.8807" ry="29.1387"/><path d="M925.1056,274.1858c0,70.9847-93.0275,128.5292-207.7829,128.5292S509.54,345.17,509.54,274.1858s93.0275-128.5291,207.7828-128.5291S925.1056,203.2011,925.1056,274.1858ZM717.3228,189.2216c-50.6148,0-91.6461,37.5293-91.6461,83.8242S666.708,356.87,717.3228,356.87s91.6461-37.5294,91.6461-83.8242S767.9375,189.2216,717.3228,189.2216Z"/><line class="af8889fb-ba4b-4d4b-a670-21faace6f4e7" x1="1208.5366" y1="546.0914" x2="1208.5366" y2="0.0002"/><path d="M1421.0959,404.8727l102.86-260.876h51.0573l-99.8784,260.876Zm48.4483-57.3926V302.3854h163.6069V347.48Zm157.644,57.3926L1527.31,143.9967h51.0572l102.86,260.876Z"/><path d="M1831.7858,409.3444q-39.5076,0-69.878-17.3291a124.25,124.25,0,0,1-47.5166-47.7031q-17.1459-30.3707-17.143-69.5049,0-29.811,9.8759-54.5977a126.9793,126.9793,0,0,1,27.7647-42.8584A124.906,124.906,0,0,1,1777.0016,149.4q24.2211-9.87,53.6661-9.876,39.1313,0,69.3184,17.33a124.37,124.37,0,0,1,47.3306,47.89q17.1373,30.5625,17.1429,70.0635,0,39.1318-16.9565,69.5049a124.1622,124.1622,0,0,1-46.7715,47.7031Q1870.911,409.3443,1831.7858,409.3444Zm0-46.585q23.4785,0,41.74-11.3662a78.4191,78.4191,0,0,0,28.51-31.1191q10.2457-19.749,10.249-45.84,0-25.7137-10.4351-45.6533a79.5327,79.5327,0,0,0-28.6967-31.3047q-18.2637-11.3641-42.4854-11.3672-23.48,0-41.9268,11.3672a79.0019,79.0019,0,0,0-28.8823,31.3047q-10.4385,19.9422-10.435,45.6533,0,26.0919,10.435,45.84a78.76,78.76,0,0,0,29.0689,31.1191Q1807.5588,362.7662,1831.7858,362.7594Zm97.6421,57.7657-96.1514-97.6416,32.7959-30.9327,95.4057,96.8965Z"/><path d="M2173.8977,404.8727,2069.92,143.9967h54.7842l99.1328,260.876Zm5.5908,0,98.76-260.876h54.7842l-103.6055,260.876Z"/><path d="M2364.3313,404.8727V143.9967h51.0576v260.876Z"/><path d="M2472.03,404.8727V143.9967h51.0576v260.876Zm38.7588-214.291v-46.585h126.3389v46.585Zm0,104.7227V249.8376h110.6865v45.4668Zm0,109.5683v-46.585h127.83v46.585Z"/><path d="M2743.3381,404.8727l-77.1445-260.876h51.8027l74.1631,260.876Zm6.709,0,71.1817-260.876h46.2119l-70.8086,260.876Zm145.7178,0L2825.7,143.9967h46.2128l72.6729,260.876Zm4.8447,0,74.9082-260.876h51.8028l-77.89,260.876Z"/><path d="M3146.2,409.3444a135.2642,135.2642,0,0,1-36.8956-4.8447,110.2459,110.2459,0,0,1-30.56-13.6026,94.84,94.84,0,0,1-22.1738-19.5654,54.4157,54.4157,0,0,1-11.3672-22.7334l49.9394-14.9072q4.8384,12.6738,17.1426,21.8017,12.2988,9.1362,30.9326,9.503,19.749.3764,32.2373-8.5713,12.4819-8.9444,12.4844-23.1065,0-12.2988-9.876-20.6836-9.8789-8.3847-27.02-12.8574l-33.9131-8.9443a105.3583,105.3583,0,0,1-33.542-14.7207,72.1087,72.1087,0,0,1-22.7334-24.4112q-8.2016-14.5341-8.1992-33.914,0-36.895,24.4111-57.5791,24.4044-20.6836,69.1319-20.6836,24.9639,0,43.79,7.2676a84.4107,84.4107,0,0,1,31.4912,20.6835,91.5819,91.5819,0,0,1,19.38,31.6778l-49.5664,15.28q-4.4721-12.6651-16.3984-21.6153-11.9311-8.9443-30.1866-8.9443-18.64,0-29.2558,8.5713-10.6217,8.578-10.6211,24.2246,0,12.2973,8.3848,19.3789,8.3862,7.0839,22.92,10.8076l34.2871,8.5723q33.54,8.2016,52.1748,29.4414,18.6314,21.2432,18.6348,47.33,0,23.1125-11.1807,40.4355-11.1811,17.3306-32.4238,27.0195Q3176.3884,409.342,3146.2,409.3444Z"/></svg>