<svg id="a408617c-4cce-458c-8559-68b1c2f77836" data-name="Layer 1" xmlns="http://www.w3.org/2000/svg" width="45.0193in" height="7.5846in" viewBox="0 0 3241.3895 546.0912"><defs><style>.b9f17c74-bc80-4d5c-9aad-f7ce672b1513,.e43066ef-db1f-4c23-9ad9-84433c75c499{stroke:#000;}.b9f17c74-bc80-4d5c-9aad-f7ce672b1513{stroke-miterlimit:10;stroke-width:25px;}.e43066ef-db1f-4c23-9ad9-84433c75c499{fill:none;stroke-width:10px;}</style></defs><title>AQq</title><path class="b9f17c74-bc80-4d5c-9aad-f7ce672b1513" d="M385.6423,277.8718c10.1935,4.7573,19.1481-9.1343,11.8829-18.4223-45.27-57.8745-113.8271-94.7712-190.5625-94.7712-77.2142,0-146.1474,37.3585-191.4071,95.8568-7.2193,9.331,1.776,23.1693,11.951,18.3661l.4542-.2144c114.2739-53.9448,243.2108-54.2386,357.6813-.8151Z"/><ellipse cx="954.5019" cy="375.3842" rx="39.8807" ry="29.1387"/><path d="M925.1056,274.1856c0,70.9847-93.0275,128.5292-207.7829,128.5292S509.54,345.17,509.54,274.1856s93.0275-128.5291,207.7828-128.5291S925.1056,203.2009,925.1056,274.1856ZM717.3228,189.2214c-50.6148,0-91.6461,37.5293-91.6461,83.8242S666.708,356.87,717.3228,356.87s91.6461-37.5294,91.6461-83.8242S767.9375,189.2214,717.3228,189.2214Z"/><path d="M1421.0959,404.8727l102.86-260.876h51.0572l-99.8784,260.876Zm48.4482-57.3926V302.3854h163.607V347.48Zm157.6441,57.3926L1527.31,143.9967h51.0572l102.86,260.876Z"/><path d="M1831.7858,409.3444q-39.5076,0-69.8779-17.3291a124.25,124.25,0,0,1-47.5166-47.7031q-17.146-30.3707-17.1431-69.5049,0-29.811,9.876-54.5977a126.98,126.98,0,0,1,27.7646-42.8584A124.9078,124.9078,0,0,1,1777.0016,149.4q24.2213-9.87,53.6661-9.876,39.1311,0,69.3183,17.33a124.37,124.37,0,0,1,47.3306,47.89q17.1372,30.5625,17.143,70.0635,0,39.1318-16.9565,69.5049a124.1616,124.1616,0,0,1-46.7715,47.7031Q1870.911,409.3443,1831.7858,409.3444Zm0-46.585q23.4786,0,41.74-11.3662a78.4183,78.4183,0,0,0,28.51-31.1191q10.2459-19.749,10.249-45.84,0-25.7137-10.435-45.6533a79.5328,79.5328,0,0,0-28.6968-31.3047q-18.2637-11.3641-42.4853-11.3672-23.4794,0-41.9268,11.3672a79.0016,79.0016,0,0,0-28.8823,31.3047q-10.4385,19.9423-10.4351,45.6533,0,26.0919,10.4351,45.84a78.76,78.76,0,0,0,29.0688,31.1191Q1807.5588,362.7662,1831.7858,362.7594Zm97.6421,57.7657-96.1514-97.6416,32.7959-30.9327,95.4058,96.8965Z"/><path d="M2173.8976,404.8727,2069.92,143.9967h54.7842l99.1328,260.876Zm5.5909,0,98.76-260.876h54.7842l-103.6055,260.876Z"/><path d="M2364.3312,404.8727V143.9967h51.0576v260.876Z"/><path d="M2472.03,404.8727V143.9967h51.0577v260.876Zm38.7588-214.291v-46.585h126.3389v46.585Zm0,104.7227V249.8376h110.6866v45.4668Zm0,109.5683v-46.585h127.83v46.585Z"/><path d="M2743.3381,404.8727l-77.1446-260.876h51.8028l74.1631,260.876Zm6.7089,0,71.1817-260.876h46.2119l-70.8086,260.876Zm145.7178,0L2825.7,143.9967h46.2129l72.6728,260.876Zm4.8447,0,74.9083-260.876h51.8027l-77.89,260.876Z"/><path d="M3146.2,409.3444a135.2638,135.2638,0,0,1-36.8955-4.8447,110.2463,110.2463,0,0,1-30.56-13.6026,94.8451,94.8451,0,0,1-22.1738-19.5654,54.4175,54.4175,0,0,1-11.3672-22.7334l49.9394-14.9072q4.8384,12.6738,17.1426,21.8017,12.2988,9.1362,30.9326,9.503,19.749.3764,32.2373-8.5713,12.4819-8.9444,12.4844-23.1065,0-12.2988-9.876-20.6836-9.8789-8.3847-27.02-12.8574l-33.9131-8.9443a105.3578,105.3578,0,0,1-33.542-14.7207,72.108,72.108,0,0,1-22.7334-24.4112q-8.2017-14.5341-8.1992-33.914,0-36.895,24.4111-57.5791,24.4044-20.6836,69.1319-20.6836,24.9637,0,43.79,7.2676a84.4119,84.4119,0,0,1,31.4912,20.6835,91.58,91.58,0,0,1,19.38,31.6778l-49.5664,15.28q-4.4721-12.6651-16.3984-21.6153-11.9311-8.9444-30.1866-8.9443-18.64,0-29.2558,8.5713-10.6216,8.5781-10.6211,24.2246,0,12.2973,8.3847,19.3789,8.3863,7.0839,22.92,10.8076l34.2871,8.5723q33.54,8.2015,52.1748,29.4414,18.6314,21.2432,18.6347,47.33,0,23.1123-11.1806,40.4355-11.1811,17.3306-32.4238,27.0195Q3176.3883,409.3419,3146.2,409.3444Z"/><line class="e43066ef-db1f-4c23-9ad9-84433c75c499" x1="1208.5366" y1="546.0912" x2="1208.5366"/></svg>